<svg width="289" height="36" viewBox="0 0 289 36" fill="none" xmlns="http://www.w3.org/2000/svg">
<path d="M73.018 24C66.6163 24 65.2312 17.2174 63.9466 14.5867L58 0H289V14.3783C289 20.9684 284.708 23.3648 278.271 23.3648C218.802 23.3648 82.1753 24 73.018 24Z" fill="white"/>
<path d="M86.458 16.1514C87.6494 16.1514 88.4941 15.6338 89.1875 14.9453L88.2793 13.666C87.7568 14.1787 87.1318 14.5645 86.4092 14.5645C85.1934 14.5645 83.9434 13.4805 83.9434 12.0791C83.9434 10.7021 85.1494 9.5791 86.4141 9.5791C87.0928 9.5791 87.7373 9.90137 88.2744 10.4287L89.1875 9.18359C88.3623 8.3877 87.4541 7.98242 86.4287 7.96777C84.2119 7.96777 82.3418 9.84766 82.3418 12.0693C82.3418 14.2812 84.1875 16.1514 86.458 16.1514ZM94.4795 16.1514C96.7354 16.1514 98.5811 14.3154 98.5811 12.0742C98.5811 9.81348 96.7354 7.96777 94.4844 7.96777C92.2334 7.96777 90.3926 9.81348 90.3926 12.0742C90.3926 14.3154 92.2334 16.1514 94.4795 16.1514ZM94.4795 14.5498C93.1074 14.5498 91.9893 13.4316 91.9893 12.0645C91.9893 10.6875 93.1074 9.56445 94.4795 9.56445C95.8564 9.56445 96.9795 10.6875 96.9795 12.0645C96.9795 13.4316 95.8564 14.5498 94.4795 14.5498ZM105.353 8.10938V12.5186L100.689 7.98242H100.611V16.0098H102.193V11.6006L106.866 16.1465H106.939V8.10938H105.353ZM114.053 9.68652V8.10938H109.307V16.0098H110.889V12.8506H113.604V11.2734H110.889V9.68652H114.053ZM115.941 16H117.523V8.12891H115.941V16ZM127.41 11.5811H123.709V13.041H125.745C125.691 13.9883 124.886 14.5645 123.763 14.5645C122.225 14.5645 121.16 13.4414 121.16 12.0742C121.16 10.6045 122.396 9.56934 123.616 9.56934C124.319 9.56934 125.022 9.91113 125.638 10.5117L126.517 9.19824C125.745 8.44629 124.656 7.97754 123.636 7.96777C121.385 7.96777 119.549 9.82324 119.549 12.0742C119.549 14.3203 121.375 16.1562 123.694 16.1562C125.745 16.1562 127.449 14.7158 127.449 12.2451C127.449 12.0303 127.435 11.8105 127.41 11.5811Z" fill="black"/>
<path d="M57.1476 27.2247C59.2416 31.6545 62.2535 36 65 36H12.5C4.60714 36 0 31 0 21.5V0H46.2416C49.0045 7.22917 55.0537 22.7949 57.1476 27.2247Z" fill="#FF4500"/>
<g filter="url(#filter0_d)">
<path d="M18.9707 13.4681H34.0285C35.117 13.4681 36 12.4946 36 11.2911C36 10.0869 35.117 9.1117 34.0285 9.1117H18.9707C17.8846 9.11174 17 10.0869 17 11.2911C17 12.4946 17.8846 13.4681 18.9707 13.4681ZM19.7012 9.95072C20.4416 9.95072 21.0425 10.5508 21.0425 11.2911C21.0425 12.0315 20.4424 12.6315 19.7012 12.6315C18.9617 12.6315 18.3608 12.0315 18.3608 11.2911C18.3608 10.5508 18.9617 9.95072 19.7012 9.95072Z" fill="#010002"/>
<path d="M34.0285 15.3222H18.9707C17.8846 15.3222 17 16.2982 17 17.5016C17 18.7051 17.8846 19.6786 18.9707 19.6786H34.0285C35.117 19.6786 36 18.7051 36 17.5016C36 16.2982 35.117 15.3222 34.0285 15.3222ZM29.2457 18.842C28.5054 18.842 27.9053 18.242 27.9053 17.5016C27.9053 16.7613 28.5046 16.1612 29.2457 16.1612C29.9868 16.1612 30.5869 16.7613 30.5869 17.5016C30.5861 18.242 29.986 18.842 29.2457 18.842Z" fill="#010002"/>
<path d="M34.0285 21.5319H18.9707C17.8846 21.5319 17 22.5079 17 23.7113C17 24.914 17.8846 25.8899 18.9707 25.8883H34.0285C35.117 25.8883 36 24.914 36 23.7113C36 22.5087 35.117 21.5319 34.0285 21.5319ZM25.1265 25.0518C24.3862 25.0518 23.7861 24.4517 23.7861 23.7105C23.7861 22.9694 24.3854 22.3701 25.1265 22.3701C25.8677 22.3701 26.467 22.9694 26.467 23.7105C26.467 24.4516 25.8669 25.0518 25.1265 25.0518Z" fill="#010002"/>
</g>
<defs>
<filter id="filter0_d" x="13" y="8" width="27" height="27" filterUnits="userSpaceOnUse" color-interpolation-filters="sRGB">
<feFlood flood-opacity="0" result="BackgroundImageFix"/>
<feColorMatrix in="SourceAlpha" type="matrix" values="0 0 0 0 0 0 0 0 0 0 0 0 0 0 0 0 0 0 127 0"/>
<feOffset dy="4"/>
<feGaussianBlur stdDeviation="2"/>
<feColorMatrix type="matrix" values="0 0 0 0 0 0 0 0 0 0 0 0 0 0 0 0 0 0 0.25 0"/>
<feBlend mode="normal" in2="BackgroundImageFix" result="effect1_dropShadow"/>
<feBlend mode="normal" in="SourceGraphic" in2="effect1_dropShadow" result="shape"/>
</filter>
</defs>
</svg>
